<?xml version="1.0" encoding="UTF-8" standalone="no"?>
<!-- Created with Inkscape (http://www.inkscape.org/) -->

<svg
   version="1.1"
   id="svg1"
   width="120.95111"
   height="67.995598"
   viewBox="0 0 120.95111 67.995598"
   xmlns="http://www.w3.org/2000/svg"
   xmlns:svg="http://www.w3.org/2000/svg">
  <defs
     id="defs1" />
  <g
     id="g1"
     transform="translate(-187.9352,-42.502201)">
    <rect
       style="fill:#ff0000;fill-opacity:1;stroke:none;stroke-width:3.26408;stroke-linecap:round;stroke-linejoin:round;stroke-opacity:1"
       id="rect2"
       width="120.95111"
       height="67.995598"
       x="187.9352"
       y="42.502201"
       rx="3.157305" />
    <text
       xml:space="preserve"
       style="font-style:normal;font-variant:normal;font-weight:normal;font-stretch:normal;font-size:33.297px;line-height:1.1;font-family:Purisa;-inkscape-font-specification:Purisa;text-align:center;letter-spacing:0px;word-spacing:0.000508741px;writing-mode:lr-tb;direction:ltr;text-anchor:middle;fill:#ff0002;fill-opacity:1;stroke-width:0.887187;stroke-linecap:round;stroke-linejoin:round"
       x="281.85751"
       y="74.164299"
       id="text2"
       transform="scale(0.93573555,1.068678)"><tspan
         id="tspan2"
         x="281.85751"
         y="74.164299"
         style="font-style:normal;font-variant:normal;font-weight:normal;font-stretch:normal;font-family:'Milles handwriting';-inkscape-font-specification:'Milles handwriting';fill:#ffffff;fill-opacity:1;stroke:#ffffff;stroke-width:0.887187;stroke-opacity:1">Buy me a coffee</tspan></text>
    <g
       id="g2"
       transform="translate(-45.913504,96.615435)">
      <path
         d="m 255.2558,-21.585599 c -1.3924,0.5961 -2.9725,1.272 -5.02047,1.272 -0.85672,-0.0018 -1.70928,-0.1193 -2.53451,-0.3495 l 1.41641,14.5421 c 0.0501,0.6079 0.32703,1.1746 0.77569,1.5877 0.44866,0.4131 1.03628,0.6424 1.64618,0.6423 0,0 2.0083,0.1043 2.6784,0.1043 0.7213,0 2.8839,-0.1043 2.8839,-0.1043 0.6098,0 1.1973,-0.2294 1.6459,-0.6425 0.4485,-0.4131 0.7253,-0.9797 0.7755,-1.5875 l 1.517,-16.0695 c -0.6779,-0.2316 -1.3621,-0.3854 -2.1334,-0.3854 -1.334,-5e-4 -2.4089,0.4589 -3.6506,0.9903 z"
         fill="#ffdd00"
         id="path1-6" />
      <path
         d="m 267.5936,-29.136899 -0.2133,-1.07581 c -0.1914,-0.9653 -0.6258,-1.87741 -1.6166,-2.2263 -0.3176,-0.1116 -0.678,-0.15957 -0.9215,-0.3906 -0.2436,-0.23103 -0.3155,-0.58982 -0.3719,-0.92254 -0.1043,-0.61068 -0.2023,-1.22188 -0.3092,-1.83152 -0.0923,-0.52411 -0.1653,-1.11288 -0.4057,-1.59371 -0.3129,-0.64562 -0.9622,-1.02319 -1.6078,-1.27299 -0.3309,-0.123492 -0.6685,-0.227963 -1.0112,-0.312897 -1.613,-0.425546 -3.309,-0.581997 -4.9684,-0.671174 -1.9918,-0.109906 -3.9888,-0.07679 -5.97588,0.09909 -1.47898,0.134548 -3.03671,0.297257 -4.44216,0.808851 -0.51368,0.187215 -1.04301,0.411985 -1.43361,0.808855 -0.47926,0.4876 -0.63571,1.24169 -0.28578,1.84976 0.24875,0.43181 0.67013,0.73689 1.11705,0.93871 0.58215,0.26005 1.19011,0.45792 1.81379,0.59034 1.73661,0.38383 3.53527,0.53454 5.30939,0.59869 1.9664,0.07936 3.936,0.01504 5.893,-0.19244 0.484,-0.05319 0.967,-0.11699 1.4493,-0.19139 0.5679,-0.08709 0.9324,-0.82971 0.765,-1.34704 -0.2002,-0.6185 -0.7384,-0.85839 -1.347,-0.76505 -0.0897,0.01408 -0.1789,0.02712 -0.2686,0.04016 l -0.0647,0.0094 c -0.2061,0.02607 -0.4123,0.05041 -0.6185,0.07301 -0.4259,0.04589 -0.8528,0.08344 -1.2808,0.11264 -0.9585,0.06675 -1.9196,0.09752 -2.8802,0.09909 -0.944,0 -1.8884,-0.0266 -2.8302,-0.08866 -0.42976,-0.02816 -0.85843,-0.06397 -1.28606,-0.10743 -0.19452,-0.02034 -0.38852,-0.04172 -0.58252,-0.06571 l -0.18462,-0.02346 -0.0401,-0.0057 -0.19139,-0.02764 c -0.39113,-0.05893 -0.78226,-0.12672 -1.16921,-0.2086 -0.0391,-0.0087 -0.074,-0.03039 -0.099,-0.06158 -0.025,-0.0312 -0.0387,-0.07 -0.0387,-0.11 0,-0.03999 0.0136,-0.07879 0.0387,-0.10999 0.025,-0.03119 0.06,-0.05292 0.099,-0.06158 h 0.007 c 0.33533,-0.07145 0.67326,-0.13246 1.01224,-0.18566 0.11299,-0.01773 0.22633,-0.03511 0.34002,-0.05215 h 0.003 c 0.21225,-0.01408 0.42554,-0.05215 0.63675,-0.07718 1.83761,-0.19114 3.68611,-0.2563 5.53261,-0.19504 0.8965,0.02608 1.7924,0.07875 2.6847,0.16949 0.1919,0.01982 0.3828,0.04068 0.5737,0.06414 0.073,0.0089 0.1465,0.0193 0.22,0.02816 l 0.1481,0.02139 c 0.4318,0.06431 0.8614,0.14237 1.2887,0.23415 0.6331,0.13768 1.4461,0.18253 1.7277,0.87613 0.0897,0.22007 0.1304,0.46465 0.1799,0.69568 l 0.0631,0.29465 c 0.002,0.0053 0.003,0.01069 0.004,0.01616 0.1491,0.69534 0.2985,1.39068 0.448,2.08602 0.0109,0.05136 0.0112,0.10444 7e-4,0.15591 -0.0104,0.05147 -0.0314,0.10023 -0.0615,0.14324 -0.0302,0.04301 -0.0689,0.07935 -0.1137,0.10675 -0.0448,0.0274 -0.0948,0.04527 -0.1468,0.0525 h -0.004 l -0.0912,0.01251 -0.0902,0.012 c -0.2858,0.0372 -0.572,0.07196 -0.8584,0.1043 -0.5643,0.06432 -1.1294,0.11994 -1.6954,0.16688 -1.1248,0.09352 -2.2517,0.15489 -3.3809,0.18409 -0.5754,0.0153 -1.1507,0.02242 -1.7257,0.02138 -2.2889,-0.0018 -4.57577,-0.13483 -6.84942,-0.39843 -0.24614,-0.0292 -0.49229,-0.06049 -0.73844,-0.0923 0.19087,0.02451 -0.13872,-0.01878 -0.20547,-0.02816 -0.15645,-0.02191 -0.31291,-0.04468 -0.46936,-0.06832 -0.52515,-0.07875 -1.04717,-0.17575 -1.57128,-0.26075 -0.63363,-0.1043 -1.23962,-0.05215 -1.81275,0.26075 -0.47045,0.25744 -0.85122,0.65222 -1.0915,1.13166 -0.24719,0.51107 -0.32073,1.06752 -0.43128,1.61666 -0.11056,0.54916 -0.28266,1.13996 -0.21747,1.70376 0.14028,1.2167 0.99085,2.2054 2.2143,2.4265 1.15096,0.2086 2.30817,0.3776 3.46851,0.5215 4.55806,0.5583 9.16296,0.6251 13.73536,0.1993 0.3723,-0.0348 0.7442,-0.0727 1.1155,-0.1137 0.1159,-0.0128 0.2333,6e-4 0.3434,0.0391 0.1102,0.0385 0.2103,0.1011 0.2931,0.1833 0.0828,0.0822 0.1462,0.1819 0.1855,0.2917 0.0393,0.1099 0.0535,0.2272 0.0416,0.3432 l -0.1158,1.1254 c -0.2333,2.2741 -0.4666,4.548 -0.6998,6.8218 -0.2434,2.3878 -0.4883,4.7754 -0.7348,7.1628 -0.0696,0.6724 -0.1391,1.3446 -0.2086,2.0167 -0.0668,0.6618 -0.0762,1.3444 -0.2019,1.9984 -0.1981,1.0284 -0.8943,1.6599 -1.9102,1.891 -0.9307,0.2118 -1.8815,0.323 -2.836,0.3316 -1.0581,0.0058 -2.1157,-0.0412 -3.1738,-0.0354 -1.1296,0.0062 -2.51315,-0.0981 -3.3851,-0.9387 -0.76609,-0.7385 -0.87195,-1.8947 -0.97625,-2.8944 -0.13907,-1.3236 -0.27692,-2.647 -0.41356,-3.9702 l -0.76661,-7.3579 -0.49594,-4.7608 c -0.008,-0.0787 -0.0167,-0.1564 -0.0245,-0.2357 -0.0595,-0.5679 -0.46153,-1.1238 -1.09516,-1.0951 -0.54236,0.024 -1.15878,0.485 -1.09516,1.0951 l 0.36766,3.5296 0.76035,7.301 c 0.2166,2.0738 0.43268,4.148 0.64823,6.2226 0.0417,0.3973 0.0808,0.7958 0.12464,1.1932 0.23833,2.1715 1.8967,3.3417 3.95038,3.6713 1.19943,0.193 2.42813,0.2326 3.64533,0.2524 1.5603,0.0251 3.1363,0.0851 4.6711,-0.1976 2.2742,-0.4172 3.9806,-1.9358 4.2241,-4.2914 0.0696,-0.6801 0.1391,-1.3603 0.2086,-2.0407 0.2312,-2.2501 0.4621,-4.5004 0.6926,-6.7508 l 0.7541,-7.3532 0.3458,-3.37 c 0.0172,-0.1671 0.0877,-0.3242 0.2012,-0.4481 0.1135,-0.1239 0.2638,-0.2079 0.4287,-0.2397 0.6503,-0.1268 1.272,-0.3432 1.7345,-0.8381 0.7364,-0.788 0.883,-1.8153 0.6227,-2.8511 z m -24.46315,0.727 c 0.01,-0.0047 -0.008,0.0803 -0.0162,0.12 -0.002,-0.06 0.002,-0.1132 0.0162,-0.12 z m 0.0631,0.4882 c 0.005,-0.0037 0.0208,0.0172 0.037,0.0422 -0.0245,-0.023 -0.0402,-0.0402 -0.0376,-0.0422 z m 0.062,0.0818 c 0.0224,0.0381 0.0344,0.0621 0,0 z m 0.12464,0.1012 h 0.003 c 0,0.0036 0.006,0.0073 0.008,0.011 -0.003,-0.0041 -0.007,-0.0077 -0.0115,-0.011 z m 21.82595,-0.1512 c -0.2337,0.2221 -0.5857,0.3254 -0.9335,0.377 -3.9009,0.5789 -7.8585,0.872 -11.8021,0.7426 -2.82241,-0.0964 -5.61505,-0.4099 -8.40927,-0.8046 -0.27379,-0.0386 -0.57052,-0.0887 -0.75878,-0.2905 -0.35462,-0.3807 -0.18044,-1.1473 -0.0881,-1.6073 0.0845,-0.42137 0.24615,-0.98303 0.74732,-1.043 0.78225,-0.09179 1.69071,0.23832 2.46462,0.35566 0.93175,0.1422 1.86698,0.25606 2.80568,0.34159 4.00617,0.36505 8.07967,0.3082 12.06807,-0.22581 0.727,-0.0977 1.4514,-0.21121 2.1731,-0.34055 0.643,-0.11525 1.3559,-0.33167 1.7445,0.33429 0.2664,0.4537 0.3019,1.06072 0.2607,1.57342 -0.0127,0.2233 -0.1103,0.4334 -0.2727,0.5872 z"
         fill="#0d0c22"
         id="path2-2" />
    </g>
  </g>
</svg>
